<svg version="1.1" id="Layer_1" xmlns="http://www.w3.org/2000/svg" xmlns:xlink="http://www.w3.org/1999/xlink" x="0px" y="0px"
	 width="100%" viewBox="0 0 416 416" enable-background="new 0 0 416 416" xml:space="preserve">
<path fill="#000000" opacity="1.000000" stroke="none" 
	d="
M285.800415,77.825851 
	C287.981964,76.349960 289.224609,74.121964 292.401581,73.533463 
	C295.595001,81.019363 296.542511,88.633369 293.471100,96.365738 
	C290.620605,103.541870 286.007721,108.954567 277.621124,109.806183 
	C276.322296,109.938072 274.893921,110.235840 274.043518,111.387184 
	C270.201965,116.588036 265.638428,121.072159 260.611084,125.723488 
	C263.880371,125.723488 267.149719,125.710846 270.418945,125.725655 
	C285.246857,125.792809 300.074799,125.928040 314.902679,125.920349 
	C326.325928,125.914429 336.038269,118.050591 337.296814,107.788055 
	C334.085571,106.338783 330.313385,105.652733 328.015503,102.496597 
	C327.099670,101.238724 325.067108,99.961861 327.042084,98.366798 
	C328.732971,97.001175 330.217529,98.289055 331.008820,99.936333 
	C332.037415,102.077667 333.575989,103.355118 336.837616,103.692276 
	C332.365936,99.775948 329.779449,95.666878 331.566681,90.087318 
	C332.031647,88.635826 331.447968,86.164383 334.085541,86.883568 
	C336.028015,87.413223 335.337952,89.201256 334.855988,90.681145 
	C333.883301,93.667824 333.686249,96.527138 336.769257,98.942215 
	C338.451935,96.835274 336.877899,94.125084 338.687500,91.983170 
	C341.607727,92.787132 344.473755,94.356354 347.755859,94.633553 
	C349.708252,94.798447 349.482422,96.694466 348.999603,98.251602 
	C348.097900,101.159782 345.991730,102.908684 343.012878,103.974640 
	C346.765869,106.190796 349.723755,105.056885 351.489441,100.866264 
	C352.075897,99.474442 352.131287,97.787300 354.178375,97.942368 
	C354.736816,97.984665 355.498077,98.437134 355.747437,98.918381 
	C356.657806,100.675278 355.045044,101.619568 354.253967,102.794975 
	C351.988800,106.160667 348.998901,108.314674 344.764008,108.361740 
	C343.073853,108.380524 341.238159,108.420593 340.594391,110.382103 
	C338.667114,116.254539 334.388947,120.459511 330.015381,125.029167 
	C333.853516,126.652817 338.004303,124.497154 342.086823,127.401794 
	C337.431671,130.227539 332.951080,128.739288 328.793976,128.985413 
	C324.145752,129.260605 319.467316,129.019867 314.802002,129.012833 
	C310.390167,129.006180 305.978302,129.011398 301.425385,129.558472 
	C305.990417,133.293533 310.132080,137.021896 313.466858,141.596359 
	C314.560394,143.096481 316.466766,142.786148 318.095825,143.024643 
	C327.876740,144.456604 331.716156,148.962082 331.159698,158.938812 
	C330.845154,164.577835 329.844940,170.154312 331.029144,175.833954 
	C331.560272,178.381470 330.004578,179.394409 327.425964,179.103668 
	C312.163666,177.382812 303.326080,161.646576 310.423859,148.468475 
	C311.766510,145.975632 311.509369,144.297760 309.970398,142.159821 
	C302.231445,131.408966 289.057007,126.720886 273.925201,129.784851 
	C276.117615,133.935501 278.400665,137.928284 279.687775,142.350601 
	C280.084259,143.712891 281.584015,144.195541 282.850952,144.576233 
	C286.803680,145.763870 287.961151,149.042297 288.902710,152.484985 
	C289.282318,153.873047 289.268799,155.342178 287.456116,155.548920 
	C285.919830,155.724121 285.531891,154.404739 285.590424,153.170898 
	C285.736389,150.094254 284.542419,148.129730 280.560638,147.228210 
	C281.792206,151.282883 285.209717,153.631866 285.238159,157.630829 
	C285.290283,164.956299 279.485046,158.846664 278.205078,161.835022 
	C275.686462,159.800766 279.221375,157.347076 276.577576,156.005981 
	C275.438690,155.812317 275.140564,156.581116 275.037781,157.445526 
	C274.808624,159.373352 273.978058,161.004272 271.884552,159.953903 
	C269.907318,158.961884 270.991425,157.106216 271.617615,155.555344 
	C272.653656,152.989441 275.724854,152.448944 277.477448,149.913025 
	C273.889099,148.526871 272.166199,150.250153 270.840363,152.703766 
	C270.022552,154.217178 269.241791,156.183960 267.258240,154.491287 
	C265.297089,152.817719 267.233429,151.609711 268.416565,150.509735 
	C269.859039,149.168671 270.829681,147.113373 272.973633,146.786835 
	C277.091522,146.159668 277.062988,143.843979 275.973724,140.633453 
	C273.498932,133.339005 269.862854,128.790222 260.452820,128.894577 
	C226.299545,129.273239 192.139557,129.030014 157.982132,129.057190 
	C149.802017,129.063690 143.164093,135.571457 142.748734,143.628906 
	C142.641754,145.704025 143.758713,146.358932 145.322021,146.576843 
	C148.265884,146.987152 149.828476,149.234833 151.732300,151.055420 
	C152.762985,152.041031 153.695709,153.185593 152.287460,154.407867 
	C150.645325,155.833145 149.576462,154.728119 148.834579,153.200760 
	C147.636688,150.734573 146.376434,148.443390 142.396255,150.242920 
	C145.578079,152.948578 149.178589,155.146576 148.028763,159.755585 
	C144.054916,161.069702 145.369507,157.081207 143.670898,155.958542 
	C141.764572,156.049698 141.004410,156.888611 142.196075,158.743011 
	C142.934311,159.891785 143.286209,161.040512 141.898041,161.664398 
	C140.200790,162.427200 139.370316,160.981522 139.096161,159.703598 
	C138.722748,157.963074 138.777328,156.130722 138.620209,153.946121 
	C137.052414,155.514175 137.432983,157.030121 137.917969,158.608353 
	C138.370560,160.081223 138.151917,161.451462 136.321777,161.483887 
	C134.599228,161.514389 134.162582,160.175842 134.354446,158.671677 
	C134.727554,155.746429 134.420746,152.581894 137.349518,150.560379 
	C138.139053,150.015427 138.955765,149.261398 137.989288,147.684937 
	C135.140701,148.113907 134.071701,149.893051 134.122314,152.722458 
	C134.151794,154.372025 133.761841,155.956345 131.635101,155.421021 
	C129.920471,154.989426 130.113770,153.504639 130.535797,152.131256 
	C131.492401,149.018250 132.779465,146.001572 136.144211,144.962128 
	C138.933197,144.100586 140.153244,142.329147 140.781738,139.696274 
	C141.637604,136.111099 143.601273,133.030319 145.936600,130.042450 
	C129.551727,126.924614 117.691643,130.568008 109.113739,142.655640 
	C107.981407,144.251266 107.493675,145.492493 108.578835,147.572800 
	C115.994080,161.788101 108.779411,175.847519 92.690842,178.974121 
	C89.835800,179.528992 88.662445,178.560715 88.679230,175.674591 
	C88.719902,168.678436 88.506042,161.678299 88.667000,154.686035 
	C88.823997,147.865875 92.826134,143.811066 99.671074,143.749634 
	C103.218391,143.717804 105.640099,142.533783 107.645226,139.684677 
	C110.452568,135.695679 114.397888,132.858871 118.441162,130.173843 
	C118.400162,129.713257 118.359161,129.252655 118.318161,128.792068 
	C104.960594,128.792068 91.603027,128.792068 78.245461,128.792068 
	C78.225235,128.172073 78.205009,127.552078 78.184784,126.932083 
	C81.474213,124.449112 85.682541,126.534187 90.221390,125.093033 
	C84.487000,121.003059 81.068520,115.707718 78.551239,109.764282 
	C77.949898,108.344475 76.403877,108.340904 75.051292,108.365295 
	C70.578995,108.445923 67.598007,105.920830 65.046829,102.660942 
	C63.924450,101.226761 62.286545,99.505562 64.735115,98.136292 
	C66.851814,96.952591 67.410866,98.962967 68.121384,100.547501 
	C69.799377,104.289635 72.651031,105.932701 77.774445,105.002480 
	C74.613525,102.851189 71.804115,101.497681 70.589882,98.458313 
	C69.737839,96.325562 69.757187,94.489037 72.370102,94.593590 
	C75.509514,94.719223 77.522850,92.732254 79.843910,91.428383 
	C83.410233,93.204437 81.430969,96.598450 82.565086,99.421875 
	C85.197670,96.657074 86.527679,93.986115 84.590294,90.494415 
	C83.727539,88.939499 83.668411,87.435791 85.692032,86.997574 
	C87.433746,86.620415 87.797127,88.082176 88.060699,89.488876 
	C89.128525,95.187897 87.705177,99.944153 82.181381,103.586075 
	C85.499252,103.621429 87.306221,102.385635 88.545403,100.233574 
	C89.429443,98.698296 90.585342,97.004646 92.345848,98.507065 
	C94.244667,100.127518 92.039856,101.358070 91.176476,102.621239 
	C88.943382,105.888374 84.914703,106.088745 81.826920,107.673645 
	C84.290215,118.643951 92.919548,125.736298 103.541527,125.747658 
	C120.869507,125.766190 138.197556,125.759377 155.525482,125.722153 
	C156.780472,125.719460 158.159470,126.186531 159.659241,124.908714 
	C154.318985,121.280663 149.806595,116.948669 146.029327,111.882118 
	C144.934753,110.413925 143.297333,110.094086 141.635788,109.810539 
	C132.458069,108.244339 127.320961,102.301872 125.230484,93.737061 
	C123.844315,88.057838 124.175468,82.183693 125.610916,76.433197 
	C126.496742,72.884575 128.296494,73.163658 130.624954,75.053802 
	C135.021133,78.622398 139.494995,82.098785 143.813766,85.758430 
	C150.114441,91.097534 152.078308,99.025688 149.297714,106.961082 
	C147.415817,112.331779 152.299576,113.899246 155.239014,117.882317 
	C156.335098,111.933502 160.845917,108.466354 160.850220,102.947746 
	C160.851715,101.011177 162.291733,99.561127 164.031281,98.754593 
	C171.415421,95.330994 179.131790,92.372162 182.162903,83.920395 
	C185.568527,85.095909 185.373856,87.003929 184.709503,89.034454 
	C182.325867,96.319733 177.768127,102.250534 172.667038,107.762787 
	C170.942001,109.626869 168.447556,110.502815 165.782990,109.892876 
	C161.653793,108.947670 160.701950,112.053421 159.433334,114.756622 
	C158.047073,117.710526 158.471909,120.311363 161.256363,122.201805 
	C164.630814,124.492836 168.360718,125.856888 172.488663,125.859398 
	C197.314575,125.874496 222.140488,125.872543 246.966400,125.874611 
	C249.674591,125.874832 252.262848,125.178246 254.747696,124.229393 
	C260.893860,121.882439 262.247528,117.558113 258.746033,111.973701 
	C257.703461,110.310974 256.595764,108.983383 254.326218,109.785561 
	C253.723206,109.998703 253.008652,110.018059 252.359848,109.961006 
	C245.806473,109.384727 233.463196,92.498817 234.819336,85.977966 
	C234.997238,85.122551 235.497772,84.482407 236.381317,84.214539 
	C237.632950,84.143417 238.118347,85.033203 238.488144,85.982018 
	C240.604095,91.411308 245.020081,94.306686 250.145081,96.196922 
	C255.100784,98.024719 258.861542,100.203835 259.472290,106.425415 
	C259.822205,109.990021 263.224030,112.996017 263.570160,116.993378 
	C269.594757,114.296333 271.347626,110.610245 269.445343,105.052811 
	C267.370972,98.992722 270.004150,90.524895 275.670013,85.714195 
	C278.840179,83.022476 282.237579,80.598328 285.800415,77.825851 
M94.174179,148.677658 
	C92.504929,150.219299 91.590584,152.233887 91.455544,154.391373 
	C91.014870,161.432266 91.386284,168.452744 92.280457,176.066803 
	C99.589226,173.386917 105.682617,169.922836 108.571739,162.851608 
	C110.430450,158.302353 108.708694,154.005997 106.397949,149.991638 
	C103.305107,150.954758 104.336868,155.001663 101.127968,155.332184 
	C99.085350,152.210037 102.917076,149.851624 102.181885,146.726151 
	C99.405823,145.761063 97.069466,146.913116 94.174179,148.677658 
M318.418152,155.185776 
	C314.844513,155.352097 316.391144,150.908432 313.299500,149.947906 
	C310.758728,154.070526 308.924133,158.628418 311.168976,163.280823 
	C314.295990,169.761551 319.660583,173.918808 327.632568,175.792587 
	C327.632568,167.757523 327.992249,160.460007 327.506744,153.219162 
	C327.180420,148.352661 322.790161,145.995972 317.640137,147.103897 
	C316.574768,149.852493 319.539490,152.004562 318.418152,155.185776 
M141.149521,105.944122 
	C141.614746,102.711662 137.093048,100.247292 139.567719,96.266167 
	C142.590408,98.891640 142.623199,103.304878 146.049744,105.199852 
	C151.838165,95.184135 141.909882,86.225098 128.822021,78.793205 
	C126.256683,82.190819 127.206192,86.142311 127.414101,89.782936 
	C127.883919,98.009735 133.565521,104.806923 141.149521,105.944122 
M292.043945,84.145859 
	C291.445374,82.354790 292.410736,80.089432 290.044220,78.379875 
	C285.853210,81.715218 281.553009,85.041451 277.363617,88.501892 
	C274.005676,91.275551 272.369049,95.073395 271.593536,99.263145 
	C271.163696,101.585197 271.188934,103.808357 273.531647,105.160591 
	C277.228851,103.130173 276.611542,98.043930 280.635498,96.207558 
	C281.961365,100.294426 277.916840,102.764992 278.228943,106.249588 
	C286.464508,105.889343 292.756622,96.176537 292.043945,84.145859 
M251.975342,104.828415 
	C249.722137,103.243820 251.964294,101.952835 252.729477,100.529312 
	C249.099884,98.848824 245.858643,97.348145 241.453552,95.308601 
	C244.070068,99.162971 245.823227,102.114220 247.951324,104.764381 
	C249.671356,106.906395 250.637589,106.822708 251.975342,104.828415 
M167.999512,100.208641 
	C167.106903,100.742607 165.750717,100.675468 165.478195,102.091682 
	C166.563019,102.503098 167.815735,101.189354 168.522446,102.261269 
	C169.545364,104.146194 166.854034,104.832565 167.610001,106.463799 
	C172.119446,104.970558 175.042953,101.649101 176.756760,95.986298 
	C173.949493,97.349037 171.279297,98.645233 167.999512,100.208641 
z"/>
<path fill="#000000" opacity="1.000000" stroke="none" 
	d="
M74.586716,314.198120 
	C70.697350,314.579285 68.458023,316.400604 67.629051,319.967651 
	C67.298668,321.389313 66.398834,322.505524 64.735016,321.650299 
	C63.240078,320.881866 63.250401,319.505981 64.003662,318.215820 
	C66.402725,314.106659 69.813805,311.384735 74.685066,310.888550 
	C76.522491,310.701385 78.388016,310.814178 79.182968,308.578094 
	C81.253563,302.753937 85.273666,298.371979 90.191780,294.439056 
	C86.262283,292.488556 82.033691,294.381226 78.444077,291.741058 
	C91.363632,290.130859 104.430862,291.201263 117.724503,289.815765 
	C112.962990,286.010223 109.079430,281.653564 105.274002,277.206085 
	C104.102203,275.836609 102.122650,276.440521 100.494202,276.282196 
	C92.220428,275.477814 88.298073,270.985260 88.531624,262.783295 
	C88.688065,257.289429 88.595055,251.788925 88.679222,246.292389 
	C88.709007,244.347717 88.134201,242.282379 89.510269,240.537292 
	C97.839119,240.680908 108.723358,248.140121 111.376160,255.618164 
	C113.320221,261.098328 111.599045,266.191986 108.952217,270.878204 
	C107.559845,273.343384 107.775703,274.986969 109.300018,277.159149 
	C116.907600,288.000031 131.513306,293.212616 146.057724,289.860260 
	C143.283829,285.982605 141.323166,281.828278 139.845947,277.457214 
	C139.275970,275.770660 137.810837,275.409668 136.411316,274.884064 
	C132.885544,273.559845 131.491806,270.578583 130.637848,267.252747 
	C130.297165,265.925934 130.250702,264.263794 131.917191,263.957153 
	C134.348602,263.509796 134.635468,261.954163 134.777451,260.004364 
	C134.854279,258.949585 135.418427,258.016968 136.682465,258.240326 
	C137.891098,258.453918 138.180466,259.446350 138.030060,260.530365 
	C137.788452,262.271729 136.636795,264.050293 138.579742,265.958160 
	C139.999283,263.483185 136.479889,258.446533 141.931061,258.101959 
	C143.546478,260.050751 139.481476,263.103699 143.547043,263.937317 
	C145.544678,262.864929 143.897400,259.498810 146.839661,259.355347 
	C147.805008,259.308319 148.541855,259.978882 148.572342,260.820801 
	C148.655807,263.126709 147.443909,264.922546 145.864960,266.483643 
	C144.847824,267.489319 142.873642,267.360321 142.527328,269.544525 
	C144.464539,271.648804 145.979752,269.913055 147.304535,268.659729 
	C148.110901,267.896851 148.421021,266.634644 149.076447,265.680878 
	C149.999298,264.337952 151.312637,264.105865 152.480164,265.206787 
	C153.533173,266.199738 153.169601,267.370880 152.059647,268.172699 
	C150.053680,269.621765 148.718445,272.036438 146.107773,272.589813 
	C142.449814,273.365143 142.457336,275.531769 143.314224,278.540741 
	C145.758957,287.125397 150.342758,290.640991 159.549484,290.643127 
	C192.881119,290.650848 226.212769,290.668549 259.544403,290.660706 
	C270.452667,290.658142 276.050385,285.174500 276.713562,273.562622 
	C273.135071,273.257172 270.302795,271.436920 267.960999,268.660400 
	C266.938721,267.448364 265.540253,266.360504 267.329773,265.025391 
	C268.912994,263.844177 270.037170,264.844269 270.761658,266.492096 
	C271.963379,269.225250 273.542023,271.362457 277.493011,269.620850 
	C275.736755,267.278442 272.813080,266.557983 271.843628,263.968170 
	C271.377472,262.722870 270.497314,261.531158 271.435150,260.237061 
	C271.764648,259.782410 272.561554,259.374512 273.104797,259.420471 
	C274.875122,259.570343 274.944763,261.014557 275.062531,262.377350 
	C275.119324,263.034515 275.202515,263.727966 276.089813,263.963287 
	C279.321625,262.645996 275.658325,260.070374 277.328461,258.064178 
	C279.111206,257.492523 281.156281,259.232788 283.522430,258.204834 
	C284.956207,257.581940 285.106262,260.139252 285.243286,261.631348 
	C285.631378,265.856873 282.143951,268.287079 280.225830,271.834991 
	C286.620911,272.382294 284.342407,265.833496 287.908203,263.526245 
	C290.140198,267.784027 288.403900,271.739319 285.487976,272.951202 
	C277.561310,276.245636 278.529633,284.789490 273.301147,289.786346 
	C287.568390,293.230743 301.931671,288.255127 309.692322,277.723358 
	C311.278717,275.570496 311.975128,273.796631 310.449432,270.988403 
	C305.029663,261.012665 306.706573,251.712418 316.578644,245.498184 
	C319.684021,243.543442 322.747498,241.513840 326.361938,240.606277 
	C329.727142,239.761322 331.539520,240.488632 330.802124,244.564697 
	C329.968048,249.175140 330.433289,253.816971 330.883545,258.484497 
	C332.082825,270.916504 327.823151,276.072571 317.176941,276.287292 
	C315.794403,276.315186 314.424927,276.514282 313.596558,277.703369 
	C310.238922,282.522919 306.001526,286.425323 300.838715,289.395081 
	C300.961731,289.921783 301.084717,290.448517 301.207733,290.975220 
	C314.549133,290.975220 327.890533,290.975220 341.231934,290.975220 
	C341.224884,291.488556 341.217804,292.001892 341.210754,292.515228 
	C337.603058,294.326294 333.546967,292.768372 328.617493,293.928528 
	C334.556671,298.204193 338.347931,303.399445 340.837036,309.541260 
	C341.415009,310.967346 343.082458,310.721069 344.395325,310.843628 
	C349.069122,311.279816 352.413055,313.822296 355.003998,317.554871 
	C355.670410,318.514923 356.467224,319.453644 355.699249,320.713196 
	C355.237732,321.470062 354.535187,321.963654 353.641235,321.870331 
	C352.203278,321.720215 351.955200,320.595032 351.644257,319.399567 
	C350.483185,314.935516 347.170013,313.980133 342.539764,313.648315 
	C343.928101,317.209137 347.549835,317.472443 348.493683,320.385254 
	C349.355164,323.043854 349.901184,325.159851 346.044128,324.921783 
	C343.256622,324.749786 341.650665,327.019684 339.275696,327.905426 
	C336.411133,326.015594 338.486847,322.860931 337.103516,320.212311 
	C333.758118,322.323700 333.879059,325.276489 334.801178,328.377197 
	C335.292175,330.028076 336.152710,332.028198 334.007904,332.606201 
	C331.469910,333.290192 331.973480,330.762421 331.561676,329.287537 
	C329.961182,323.555267 332.761444,319.531128 336.801208,316.137604 
	C331.803986,313.971680 331.709259,323.207031 326.019562,320.560272 
	C328.266815,315.250702 332.487946,313.294952 337.195709,312.222778 
	C337.119781,305.324493 330.734528,297.383850 323.221863,295.018158 
	C320.398346,294.129059 317.368744,293.479584 314.426239,293.451996 
	C298.095520,293.298950 281.762695,293.362030 265.430573,293.378815 
	C263.642548,293.380646 261.810669,293.309784 259.631073,294.506195 
	C265.256805,298.307098 269.981079,302.664978 273.771423,307.966217 
	C274.462036,308.932129 275.562897,309.319672 276.763641,309.590149 
	C288.942657,312.333588 295.415741,320.473572 295.197906,332.995178 
	C295.121277,337.399567 295.011780,341.902100 291.841064,347.003906 
	C284.093323,338.498840 272.405029,335.036682 269.033081,323.002594 
	C268.228241,320.130310 268.271210,317.407074 269.243652,314.679474 
	C271.388855,308.662354 270.401672,306.283386 263.901794,302.739349 
	C262.855225,307.651062 259.259918,311.403870 258.619720,316.550629 
	C258.175812,320.119354 254.664993,321.304840 251.800705,322.560272 
	C246.244202,324.995667 240.706741,327.324036 238.453430,333.699768 
	C238.105972,334.682922 237.297791,335.400696 236.128647,335.107391 
	C234.954483,334.812866 234.709106,333.783051 234.708008,332.752502 
	C234.706955,331.758759 234.622498,330.672760 234.974045,329.785553 
	C237.769928,322.729553 241.927567,316.564087 247.575699,311.483063 
	C249.230453,309.994446 251.463104,309.220947 253.645920,309.768738 
	C258.208771,310.913727 259.040771,307.524170 260.110291,304.634979 
	C261.328400,301.344421 260.828278,298.491882 257.383240,296.541107 
	C253.651718,294.428192 249.689621,293.392487 245.458862,293.385834 
	C221.459885,293.348053 197.460831,293.361694 173.461884,293.319305 
	C170.223114,293.313568 167.178543,294.070099 164.270050,295.356262 
	C157.952789,298.149872 156.934738,301.954041 160.804230,307.633362 
	C161.918839,309.269287 163.047485,310.342712 165.300674,309.807831 
	C167.872314,309.197418 170.548401,309.823395 172.293213,311.669922 
	C177.559479,317.243164 182.426178,323.155212 184.660416,330.731628 
	C185.099991,332.222229 185.524811,333.868347 183.826492,334.707794 
	C181.794785,335.711975 181.264450,333.799164 180.678177,332.523346 
	C178.241287,327.220398 173.515686,324.811462 168.488770,322.848938 
	C164.079575,321.127563 160.777328,319.100281 160.295105,313.452484 
	C159.973083,309.680969 156.492493,306.546143 155.798767,302.493561 
	C149.777283,305.404144 148.412201,308.507874 150.033859,314.432831 
	C151.579193,320.078979 150.553360,325.500763 147.074570,330.084198 
	C141.885757,336.920654 133.723557,340.213867 127.966858,346.527893 
	C120.075401,335.499115 124.676758,311.265503 142.180756,309.700470 
	C144.038162,309.534393 145.361877,308.770660 146.308975,307.305939 
	C149.798264,301.909515 154.760468,298.036072 160.548981,293.829498 
	C146.826904,293.013153 133.876114,293.379089 120.935448,293.478058 
	C116.453804,293.512329 111.995285,293.800232 107.494789,293.447876 
	C94.813919,292.455017 84.876091,299.521240 81.656097,311.848999 
	C85.425125,312.887604 89.208061,314.093597 91.777351,317.384125 
	C92.604462,318.443451 93.785439,319.619049 92.472115,320.826996 
	C91.014091,322.168060 89.578568,321.330872 88.841286,319.789917 
	C87.565422,317.123230 85.550873,315.802094 81.706985,315.619537 
	C87.767014,318.976898 88.944786,323.816101 88.103065,329.387115 
	C87.873077,330.909332 87.768837,333.232117 85.286995,332.423981 
	C83.310173,331.780304 84.012863,330.032196 84.688705,328.633423 
	C86.334335,325.227722 85.285751,322.552979 82.125031,319.884064 
	C81.407249,322.655792 83.499519,325.842285 80.280159,327.814209 
	C77.841362,326.703003 75.799500,324.308563 72.381142,324.868622 
	C70.541199,325.170135 69.613899,323.523834 70.369553,321.381470 
	C71.470245,318.260895 74.046875,316.815063 76.688133,315.637543 
	C76.642693,314.120728 75.672501,314.322571 74.586716,314.198120 
M100.936699,247.547058 
	C98.286736,245.930710 95.751862,244.018890 91.331062,243.924149 
	C91.331062,250.620667 91.251572,257.037933 91.353149,263.452332 
	C91.457268,270.026764 95.397598,273.339294 102.320343,272.853577 
	C103.152382,269.841064 98.974106,267.376740 101.144363,264.033539 
	C104.343727,264.718658 103.548653,268.745789 106.163315,269.716309 
	C111.313095,260.331573 110.174408,255.186935 100.936699,247.547058 
M317.088928,272.611877 
	C323.177826,273.352936 326.734985,271.557800 327.504272,266.421753 
	C328.606689,259.061615 327.577179,251.653519 327.547394,243.400208 
	C319.745514,245.943390 313.951843,249.793930 310.995361,256.384186 
	C308.982544,260.870911 310.356018,265.719086 313.432404,269.752655 
	C316.165710,268.704773 315.087738,264.458710 318.607971,264.241516 
	C319.576111,267.352783 316.942078,269.405426 317.088928,272.611877 
M136.153198,314.683746 
	C127.874268,320.843262 124.420593,333.616150 129.033768,341.013855 
	C144.298126,332.896790 151.207458,321.974365 145.993408,314.012939 
	C142.433167,315.870331 143.279785,321.364594 138.790405,323.004456 
	C137.906342,318.817963 142.102295,316.312775 141.666336,312.603363 
	C139.555283,312.501373 138.196854,313.529572 136.153198,314.683746 
M277.328766,319.213348 
	C276.046082,317.449097 275.700684,314.887451 273.270111,313.970581 
	C267.110260,323.912018 278.553864,333.410492 290.903473,340.775970 
	C294.897491,327.050842 288.445587,313.403564 277.879425,313.231995 
	C277.757111,316.559509 281.703156,318.932953 280.334198,322.926910 
	C278.600128,322.291962 278.066559,321.118774 277.328766,319.213348 
M252.605759,317.439026 
	C247.845428,316.034149 254.685730,314.150818 252.310730,312.568420 
	C246.609970,314.061523 244.909042,319.316559 242.111694,323.615875 
	C246.202713,321.231262 251.140961,320.527283 254.486450,316.855682 
	C254.030914,317.008270 253.575378,317.160858 252.605759,317.439026 
M171.656296,314.918060 
	C170.354248,313.748352 169.019226,312.668335 166.575470,312.942719 
	C167.932434,315.098175 170.974396,317.178650 165.985580,318.258301 
	C170.340073,320.491730 174.138412,322.439911 178.461960,324.657501 
	C176.165817,321.315338 174.144669,318.373444 171.656296,314.918060 
z"/>
<path fill="#000000" opacity="1.000000" stroke="none" 
	d="
M225.690704,215.003113 
	C227.770767,209.052811 229.778091,203.412262 231.713211,197.747040 
	C233.890213,191.373734 233.861862,191.364044 228.633896,186.838852 
	C234.967468,184.842056 240.669205,185.615280 246.230072,186.174347 
	C246.694778,188.139633 246.057343,189.081360 244.992676,189.074875 
	C240.066635,189.044922 238.636810,192.570312 237.309875,196.287369 
	C233.618896,206.626678 229.962067,216.978546 226.188278,227.287598 
	C225.448029,229.309769 225.489960,232.294922 222.177765,232.173645 
	C219.283371,232.067673 219.164291,229.416748 218.447586,227.504684 
	C214.828537,217.849457 211.343536,208.143921 207.717590,198.491318 
	C206.328232,194.792725 205.296875,190.748154 200.849884,189.262421 
	C199.799637,188.911530 199.189896,188.108307 199.559235,186.950562 
	C199.937225,185.765686 201.044876,185.836349 202.025131,185.697189 
	C207.874237,184.866898 212.413086,187.420120 214.644287,193.083099 
	C217.387192,200.044800 219.901291,207.097046 222.684586,214.041931 
	C223.025192,214.891800 223.167999,218.345688 225.690704,215.003113 
z"/>
<path fill="#000000" opacity="1.000000" stroke="none" 
	d="
M298.387207,109.764664 
	C299.462219,109.030983 301.325226,109.107758 300.252380,107.317017 
	C299.922699,106.766754 299.235840,106.441292 298.847015,105.913780 
	C297.102936,103.547684 294.129669,100.835648 296.695801,98.073418 
	C299.774323,94.759598 301.755524,98.935692 304.036163,100.419579 
	C304.280426,100.578522 304.633484,100.570259 305.029327,100.660927 
	C306.471008,98.212494 305.287079,93.344391 309.712585,93.693535 
	C313.934021,94.026581 312.914215,98.416039 313.718628,101.562073 
	C316.370026,101.779175 320.133911,99.317062 321.470398,103.278976 
	C322.842010,107.344955 318.556274,108.208519 316.337311,110.261185 
	C316.807007,113.296959 321.053772,115.715858 318.045807,119.258873 
	C316.102264,121.548103 314.099579,119.196419 312.170715,118.928612 
	C310.409058,120.136299 310.495422,123.627190 307.681244,123.028015 
	C304.297485,122.307571 305.264008,118.742523 304.150696,116.251198 
	C300.988403,115.775337 296.830841,119.956131 294.581696,115.177452 
	C293.397583,112.661621 296.080872,111.131737 298.387207,109.764664 
z"/>
<path fill="#000000" opacity="1.000000" stroke="none" 
	d="
M121.614357,309.284912 
	C119.291206,310.340668 118.180855,311.465820 120.352226,313.395447 
	C120.722885,313.724854 121.057343,314.099854 121.378548,314.479187 
	C123.224892,316.659729 124.556206,319.460205 122.535774,321.662872 
	C120.122086,324.294312 118.185959,321.284546 116.270561,319.915436 
	C115.883308,319.638580 115.441826,319.437561 114.963066,319.166321 
	C112.476517,320.995361 113.957977,326.408142 109.652344,325.964874 
	C105.839249,325.572296 106.756454,321.294922 105.595451,318.585022 
	C103.181427,317.404175 98.962746,319.942627 98.050217,315.800751 
	C97.130356,311.625580 101.580673,311.260895 103.851166,309.257355 
	C102.788193,306.455292 99.090851,304.269867 101.187325,300.829041 
	C102.590034,298.526886 105.136124,300.196869 107.465683,300.308655 
	C107.872711,299.744965 108.393555,299.137421 108.785439,298.455719 
	C109.474785,297.256683 110.259918,296.087219 111.799667,296.279144 
	C113.562393,296.498840 114.143532,297.927216 114.431007,299.483032 
	C114.931297,302.190643 115.633926,304.290283 119.293564,303.005554 
	C121.124748,302.362701 123.822075,301.229065 124.924255,304.080780 
	C125.902412,306.611572 123.785759,307.951508 121.614357,309.284912 
z"/>
<path fill="#000000" opacity="1.000000" stroke="none" 
	d="
M118.325989,97.741714 
	C123.089729,95.797760 123.602760,98.323814 123.092804,101.738617 
	C122.705818,104.329956 120.288986,105.761330 119.049263,108.147774 
	C120.883797,110.742432 126.756203,111.350830 124.713104,115.576088 
	C122.689232,119.761627 118.483139,115.869240 115.252487,116.020065 
	C113.208733,118.050079 115.866394,122.257851 112.054375,123.173119 
	C109.121613,123.877274 109.247978,120.385757 107.511116,119.224228 
	C105.410904,118.803513 102.883324,121.528496 101.115479,118.871063 
	C98.963058,115.635544 102.537682,113.457458 103.160927,110.721947 
	C101.883148,107.829216 96.343597,107.311241 98.275452,103.018135 
	C99.748360,99.744904 103.001968,100.778465 105.872635,102.161018 
	C107.297935,99.091385 105.331154,94.191063 109.729652,93.679802 
	C113.919731,93.192764 112.652161,98.166328 114.584526,100.316422 
	C116.192909,100.274132 116.696556,98.485718 118.325989,97.741714 
z"/>
<path fill="#000000" opacity="1.000000" stroke="none" 
	d="
M315.835449,318.021484 
	C312.988373,317.560822 313.539276,319.485260 313.234985,320.843567 
	C312.727875,323.106934 312.348846,325.989960 309.462158,325.952667 
	C306.574432,325.915375 306.367340,322.951294 305.751556,320.741241 
	C305.544312,319.997437 305.922546,319.057404 304.938690,318.496033 
	C302.289764,319.758148 300.234039,325.204620 296.936005,321.703033 
	C293.156555,317.690277 298.658752,314.842926 300.332642,311.456238 
	C298.938477,308.537109 292.659821,308.343109 294.923798,303.845184 
	C296.763763,300.189697 300.610779,303.739838 303.763733,303.304779 
	C305.760742,301.462891 303.883331,296.819946 307.880157,296.372284 
	C310.383789,296.091919 310.310638,299.171051 311.843140,300.667267 
	C313.936615,300.765045 316.629852,298.134338 318.439758,301.018036 
	C320.413879,304.163391 317.284271,306.144257 315.951782,308.779083 
	C317.729919,311.268982 322.924683,311.766602 321.370239,316.365662 
	C320.607605,318.622101 318.256134,318.500732 315.835449,318.021484 
z"/>
<path fill="#000000" opacity="1.000000" stroke="none" 
	d="
M190.800659,185.668213 
	C192.596237,185.696274 193.927475,185.687027 195.253296,185.767181 
	C196.088104,185.817657 196.957718,185.993393 197.178329,186.995941 
	C197.444168,188.204086 196.782028,188.991165 195.689987,189.145035 
	C191.311829,189.761841 191.304840,192.999405 191.303299,196.259918 
	C191.299377,204.571487 191.308945,212.883072 191.308655,221.194641 
	C191.308548,224.340576 191.531113,227.316635 195.602905,227.860992 
	C196.486389,227.979111 197.120255,228.537399 197.191940,229.499313 
	C197.266327,230.497498 196.671204,231.146500 195.768250,231.178284 
	C189.585754,231.395844 183.390289,231.713440 177.008423,230.934082 
	C177.304001,229.603134 177.327332,228.784729 177.517868,228.743744 
	C183.226059,227.516068 183.063232,223.165146 183.002106,218.757370 
	C182.914536,212.441666 182.989288,206.123871 182.937515,199.807434 
	C182.896744,194.832733 184.225784,189.188858 176.354126,187.458206 
	C181.344788,184.864716 185.936523,186.005936 190.800659,185.668213 
z"/>
</svg>